REM MD5 65a6c49916b788737290dda1faed5e2b
FILE "Official U.S. PlayStation Magazine Demo Disc 30 (USA).bin" BINARY
  TRACK 01 MODE2/2352
    INDEX 01 00:00:00
  TRACK 02 AUDIO
    INDEX 00 48:42:59
    INDEX 01 48:44:59
  TRACK 03 AUDIO
    INDEX 00 49:53:09
    INDEX 01 49:55:09
  TRACK 04 AUDIO
    INDEX 00 54:21:48
    INDEX 01 54:23:48
  TRACK 05 AUDIO
    INDEX 00 54:28:35
    INDEX 01 54:30:35
REM LEADOUT 54:36:31
